<svg xmlns="http://www.w3.org/2000/svg" viewBox="0 0 256 256">
  <rect x="64" y="64" width="128" height="128" rx="8" fill="none" stroke="#6366F1" stroke-width="6"/>
  <line x1="64" y1="80" x2="32" y2="80" stroke="#6366F1" stroke-width="6" stroke-linecap="round"/>
  <line x1="64" y1="112" x2="32" y2="112" stroke="#6366F1" stroke-width="6" stroke-linecap="round"/>
  <line x1="64" y1="144" x2="32" y2="144" stroke="#6366F1" stroke-width="6" stroke-linecap="round"/>
  <line x1="64" y1="176" x2="32" y2="176" stroke="#6366F1" stroke-width="6" stroke-linecap="round"/>
  <line x1="192" y1="80" x2="224" y2="80" stroke="#6366F1" stroke-width="6" stroke-linecap="round"/>
  <line x1="192" y1="112" x2="224" y2="112" stroke="#6366F1" stroke-width="6" stroke-linecap="round"/>
  <line x1="192" y1="144" x2="224" y2="144" stroke="#6366F1" stroke-width="6" stroke-linecap="round"/>
  <line x1="192" y1="176" x2="224" y2="176" stroke="#6366F1" stroke-width="6" stroke-linecap="round"/>
  <line x1="80" y1="64" x2="80" y2="32" stroke="#6366F1" stroke-width="6" stroke-linecap="round"/>
  <line x1="112" y1="64" x2="112" y2="32" stroke="#6366F1" stroke-width="6" stroke-linecap="round"/>
  <line x1="144" y1="64" x2="144" y2="32" stroke="#6366F1" stroke-width="6" stroke-linecap="round"/>
  <line x1="176" y1="64" x2="176" y2="32" stroke="#6366F1" stroke-width="6" stroke-linecap="round"/>
  <line x1="80" y1="192" x2="80" y2="224" stroke="#6366F1" stroke-width="6" stroke-linecap="round"/>
  <line x1="112" y1="192" x2="112" y2="224" stroke="#6366F1" stroke-width="6" stroke-linecap="round"/>
  <line x1="144" y1="192" x2="144" y2="224" stroke="#6366F1" stroke-width="6" stroke-linecap="round"/>
  <line x1="176" y1="192" x2="176" y2="224" stroke="#6366F1" stroke-width="6" stroke-linecap="round"/>
  <circle cx="96" cy="96" r="8" fill="#6366F1"/>
  <circle cx="160" cy="96" r="8" fill="#6366F1"/>
  <circle cx="128" cy="128" r="10" fill="#6366F1"/>
  <circle cx="96" cy="160" r="8" fill="#6366F1"/>
  <circle cx="160" cy="160" r="8" fill="#6366F1"/>
  <line x1="96" y1="96" x2="128" y2="128" stroke="#6366F1" stroke-width="3"/>
  <line x1="160" y1="96" x2="128" y2="128" stroke="#6366F1" stroke-width="3"/>
  <line x1="96" y1="160" x2="128" y2="128" stroke="#6366F1" stroke-width="3"/>
  <line x1="160" y1="160" x2="128" y2="128" stroke="#6366F1" stroke-width="3"/>
</svg>